<?xml version="1.0" encoding="UTF-8" standalone="no"?>
<!DOCTYPE svg PUBLIC "-//W3C//DTD SVG 1.1//EN" "http://www.w3.org/Graphics/SVG/1.1/DTD/svg11.dtd">
<svg viewBox="0 0 298 298" version="1.1" xmlns="http://www.w3.org/2000/svg" xmlns:xlink="http://www.w3.org/1999/xlink" xml:space="preserve" xmlns:serif="http://www.serif.com/" style="fill-rule: evenodd; stroke-linejoin: round; clip-rule: evenodd; stroke-miterlimit: 2">
    <g>
        <g id="XMLID_50_">
            <g>
                <path d="M 148.8 81.7 C 185.8 81.7 215.8 111.8 215.8 148.8 C 215.8 185.8 185.8 215.8 148.8 215.8 C 111.8 215.8 81.7 185.8 81.7 148.8 C 81.7 111.8 111.8 81.7 148.8 81.7 Z M 204.8 148.8 C 204.8 117.8 179.7 92.7 148.8 92.7 C 117.8 92.7 92.7 117.8 92.7 148.8 C 92.7 179.7 117.8 204.8 148.8 204.8 C 179.7 204.8 204.8 179.7 204.8 148.8 Z" style="fill: rgb(147, 169, 209); fill-rule: nonzero"/>
                <path d="M 174.4 253.8 C 176.3 255.6 178.3 257.4 180.4 258.9 C 174.2 270 162.3 277.4 148.8 277.4 C 135.2 277.4 123.4 270 117.1 258.9 C 119.2 257.4 121.2 255.6 123.1 253.8 C 128.7 248.1 132.9 241.6 135.6 234.7 C 139.9 235.3 144.3 235.7 148.8 235.7 C 153.2 235.7 157.6 235.3 161.9 234.7 C 164.6 241.6 168.8 248.1 174.4 253.8 Z" style="fill: rgb(190, 156, 193); fill-rule: nonzero"/>
                <path d="M 62.8 135.6 C 62.2 139.9 61.9 144.3 61.9 148.8 C 61.9 153.2 62.2 157.6 62.8 161.9 C 55.8 164.7 49.3 168.9 43.8 174.4 C 41.9 176.3 40.1 178.3 38.6 180.4 C 27.5 174.2 20.1 162.3 20.1 148.8 C 20.1 135.2 27.5 123.4 38.6 117.1 C 40.1 119.2 41.9 121.2 43.8 123.1 C 49.3 128.6 55.8 132.8 62.8 135.6 Z" style="fill: rgb(190, 156, 193); fill-rule: nonzero"/>
                <path d="M 180.4 38.6 C 178.3 40.1 176.3 41.9 174.4 43.8 C 168.9 49.3 164.7 55.8 161.9 62.8 C 157.6 62.2 153.2 61.9 148.8 61.9 C 144.3 61.9 139.9 62.2 135.6 62.8 C 132.8 55.8 128.6 49.3 123.1 43.8 C 121.2 41.9 119.2 40.1 117.1 38.6 C 123.3 27.5 135.2 20.1 148.8 20.1 C 162.3 20.1 174.2 27.5 180.4 38.6 Z" style="fill: rgb(190, 156, 193); fill-rule: nonzero"/>
                <path d="M 258.9 117.1 C 270 123.4 277.4 135.2 277.4 148.8 C 277.4 162.3 270 174.2 258.9 180.4 C 257.4 178.3 255.7 176.3 253.8 174.4 C 248.2 168.9 241.7 164.7 234.7 161.9 C 235.3 157.6 235.7 153.2 235.7 148.8 C 235.7 144.3 235.3 139.9 234.7 135.6 C 241.7 132.8 248.2 128.6 253.8 123.1 C 255.6 121.2 257.4 119.2 258.9 117.1 Z" style="fill: rgb(190, 156, 193); fill-rule: nonzero"/>
                <path d="M 239.8 57.8 C 246.6 64.6 250.4 73.7 250.4 83.4 C 250.4 93.1 246.6 102.2 239.8 109.1 C 236.7 112.1 233.2 114.6 229.4 116.3 C 220.5 94.5 203.1 77 181.2 68.1 C 182.9 64.3 185.4 60.8 188.4 57.8 C 195.3 50.9 204.4 47.1 214.1 47.1 C 223.8 47.1 232.9 50.9 239.8 57.8 Z" style="fill: rgb(236, 128, 158); fill-rule: nonzero"/>
                <path d="M 109.1 57.8 C 112.1 60.8 114.6 64.3 116.3 68.1 C 94.5 77 77 94.5 68.1 116.3 C 64.3 114.6 60.8 112.1 57.8 109.1 C 50.9 102.2 47.1 93.1 47.1 83.4 C 47.1 73.7 50.9 64.6 57.8 57.8 C 64.6 50.9 73.7 47.1 83.4 47.1 C 93.1 47.1 102.2 50.9 109.1 57.8 Z" style="fill: rgb(236, 128, 158); fill-rule: nonzero"/>
                <path d="M 116.3 229.4 C 114.6 233.1 112.2 236.7 109.1 239.8 C 102.2 246.6 93.1 250.4 83.4 250.4 C 73.7 250.4 64.6 246.6 57.8 239.8 C 43.6 225.6 43.6 202.6 57.8 188.4 C 60.8 185.4 64.3 182.9 68.1 181.2 C 77 203.1 94.4 220.5 116.3 229.4 Z" style="fill: rgb(236, 128, 158); fill-rule: nonzero"/>
                <path d="M 239.8 188.4 C 253.9 202.6 253.9 225.6 239.8 239.8 C 232.9 246.6 223.8 250.4 214.1 250.4 C 204.4 250.4 195.3 246.6 188.4 239.8 C 185.3 236.7 182.9 233.1 181.2 229.4 C 203.1 220.5 220.5 203.1 229.4 181.2 C 233.2 182.9 236.7 185.4 239.8 188.4 Z" style="fill: rgb(236, 128, 158); fill-rule: nonzero"/>
                <path d="M 148.8 112.5 C 168.8 112.5 185.1 128.7 185.1 148.8 C 185.1 168.8 168.8 185.1 148.8 185.1 C 128.7 185.1 112.5 168.8 112.5 148.8 C 112.5 128.7 128.7 112.5 148.8 112.5 Z" style="fill: rgb(247, 202, 202); fill-rule: nonzero"/>
                <path d="M 267.9 99.4 C 285.4 109 297.3 127.5 297.3 148.8 C 297.3 170 285.3 188.6 267.8 198.1 C 273.5 217.2 268.8 238.7 253.8 253.8 C 243.2 264.4 229.1 270.2 214.1 270.2 C 208.6 270.2 203.2 269.4 198.1 267.9 C 188.5 285.4 170 297.3 148.8 297.3 C 127.5 297.3 109 285.4 99.5 267.9 C 94.3 269.4 88.9 270.2 83.4 270.2 C 68.4 270.2 54.3 264.4 43.8 253.8 C 28.7 238.7 24 217.2 29.7 198.1 C 12.2 188.6 0.3 170 0.3 148.8 C 0.3 127.5 12.2 109 29.6 99.5 C 28.1 94.3 27.3 88.9 27.3 83.4 C 27.3 68.4 33.1 54.3 43.8 43.8 C 54.3 33.1 68.4 27.3 83.4 27.3 C 88.9 27.3 94.3 28.1 99.5 29.6 C 109 12.2 127.5 0.3 148.8 0.3 C 170 0.3 188.5 12.2 198.1 29.6 C 203.2 28.1 208.6 27.3 214.1 27.3 C 229.1 27.3 243.2 33.1 253.8 43.8 C 264.4 54.3 270.2 68.4 270.2 83.4 C 270.2 88.9 269.4 94.3 267.9 99.4 Z M 277.4 148.8 C 277.4 135.2 270 123.4 258.9 117.1 C 257.4 119.2 255.6 121.2 253.8 123.1 C 248.2 128.6 241.7 132.8 234.7 135.6 C 235.3 139.9 235.7 144.3 235.7 148.8 C 235.7 153.2 235.3 157.6 234.7 161.9 C 241.7 164.7 248.2 168.9 253.8 174.4 C 255.7 176.3 257.4 178.3 258.9 180.4 C 270 174.2 277.4 162.3 277.4 148.8 Z M 250.4 83.4 C 250.4 73.7 246.6 64.6 239.8 57.8 C 232.9 50.9 223.8 47.1 214.1 47.1 C 204.4 47.1 195.3 50.9 188.4 57.8 C 185.4 60.8 182.9 64.3 181.2 68.1 C 203.1 77 220.5 94.5 229.4 116.3 C 233.2 114.6 236.7 112.1 239.8 109.1 C 246.6 102.2 250.4 93.1 250.4 83.4 Z M 239.8 239.8 C 253.9 225.6 253.9 202.6 239.8 188.4 C 236.7 185.4 233.2 182.9 229.4 181.2 C 220.5 203.1 203.1 220.5 181.2 229.4 C 182.9 233.1 185.3 236.7 188.4 239.8 C 195.3 246.6 204.4 250.4 214.1 250.4 C 223.8 250.4 232.9 246.6 239.8 239.8 Z M 215.8 148.8 C 215.8 111.8 185.8 81.7 148.8 81.7 C 111.8 81.7 81.7 111.8 81.7 148.8 C 81.7 185.8 111.8 215.8 148.8 215.8 C 185.8 215.8 215.8 185.8 215.8 148.8 Z M 174.4 43.8 C 176.3 41.9 178.3 40.1 180.4 38.6 C 174.2 27.5 162.3 20.1 148.8 20.1 C 135.2 20.1 123.3 27.5 117.1 38.6 C 119.2 40.1 121.2 41.9 123.1 43.8 C 128.6 49.3 132.8 55.8 135.6 62.8 C 139.9 62.2 144.3 61.9 148.8 61.9 C 153.2 61.9 157.6 62.2 161.9 62.8 C 164.7 55.8 168.9 49.3 174.4 43.8 Z M 180.4 258.9 C 178.3 257.4 176.3 255.6 174.4 253.8 C 168.8 248.1 164.6 241.6 161.9 234.7 C 157.6 235.3 153.2 235.7 148.8 235.7 C 144.3 235.7 139.9 235.3 135.6 234.7 C 132.9 241.6 128.7 248.1 123.1 253.8 C 121.2 255.6 119.2 257.4 117.1 258.9 C 123.4 270 135.2 277.4 148.8 277.4 C 162.3 277.4 174.2 270 180.4 258.9 Z M 109.1 239.8 C 112.2 236.7 114.6 233.1 116.3 229.4 C 94.4 220.5 77 203.1 68.1 181.2 C 64.3 182.9 60.8 185.4 57.8 188.4 C 43.6 202.6 43.6 225.6 57.8 239.8 C 64.6 246.6 73.7 250.4 83.4 250.4 C 93.1 250.4 102.2 246.6 109.1 239.8 Z M 116.3 68.1 C 114.6 64.3 112.1 60.8 109.1 57.8 C 102.2 50.9 93.1 47.1 83.4 47.1 C 73.7 47.1 64.6 50.9 57.8 57.8 C 50.9 64.6 47.1 73.7 47.1 83.4 C 47.1 93.1 50.9 102.2 57.8 109.1 C 60.8 112.1 64.3 114.6 68.1 116.3 C 77 94.5 94.5 77 116.3 68.1 Z M 61.9 148.8 C 61.9 144.3 62.2 139.9 62.8 135.6 C 55.8 132.8 49.3 128.6 43.8 123.1 C 41.9 121.2 40.1 119.2 38.6 117.1 C 27.5 123.4 20.1 135.2 20.1 148.8 C 20.1 162.3 27.5 174.2 38.6 180.4 C 40.1 178.3 41.9 176.3 43.8 174.4 C 49.3 168.9 55.8 164.7 62.8 161.9 C 62.2 157.6 61.9 153.2 61.9 148.8 Z" style="fill: rgb(133, 103, 123); fill-rule: nonzero"/>
                <path d="M 148.8 92.7 C 179.7 92.7 204.8 117.8 204.8 148.8 C 204.8 179.7 179.7 204.8 148.8 204.8 C 117.8 204.8 92.7 179.7 92.7 148.8 C 92.7 117.8 117.8 92.7 148.8 92.7 Z M 185.1 148.8 C 185.1 128.7 168.8 112.5 148.8 112.5 C 128.7 112.5 112.5 128.7 112.5 148.8 C 112.5 168.8 128.7 185.1 148.8 185.1 C 168.8 185.1 185.1 168.8 185.1 148.8 Z" style="fill: rgb(133, 103, 123); fill-rule: nonzero"/>
            </g>
        </g>
    </g>
</svg>
