<?xml version="1.0" encoding="iso-8859-1"?>
<!-- Generator: Adobe Illustrator 19.0.0, SVG Export Plug-In . SVG Version: 6.00 Build 0)  -->
<svg version="1.1" id="Capa_1" xmlns="http://www.w3.org/2000/svg" xmlns:xlink="http://www.w3.org/1999/xlink" x="0px" y="0px"
	 viewBox="0 0 512 512" style="enable-background:new 0 0 512 512;" xml:space="preserve">
<path style="fill:#b565a7;" d="M256,0L60,256l196,256c141.385,0,256-114.615,256-256S397.385,0,256,0z"/>
<path style="fill:#ec809e;" d="M0,256c0,141.385,114.615,256,256,256V0C114.615,0,0,114.615,0,256z"/>
<g>
	<polygon style="fill:#f7caca;" points="406,363.511 406,308.584 256,364.837 226,392.3 256,419.763 	"/>
	<polygon style="fill:#f7caca;" points="256,92.237 196,169.033 256,245.829 405.999,189.576 405.999,148.489 	"/>
	<polygon style="fill:#f7caca;" points="256,332.796 406,276.544 405.999,221.616 256,277.87 226,305.333 	"/>
</g>
<g>
	<polygon style="fill:#FFFFFF;" points="255.999,277.87 106,221.617 106,276.547 255.999,332.796 	"/>
	<polygon style="fill:#FFFFFF;" points="255.999,92.236 106,148.489 106,189.576 255.999,245.829 	"/>
	<polygon style="fill:#FFFFFF;" points="256,364.837 106,308.586 106,363.511 255.999,419.764 	"/>
</g>
<g>
</g>
<g>
</g>
<g>
</g>
<g>
</g>
<g>
</g>
<g>
</g>
<g>
</g>
<g>
</g>
<g>
</g>
<g>
</g>
<g>
</g>
<g>
</g>
<g>
</g>
<g>
</g>
<g>
</g>
</svg>
