<svg viewBox="0 0 500 500" aria-hidden="true" style="position:absolute"><defs><symbol id="prefix__logo-jamstack" viewBox="0 0 163 31" fill="none"><path d="M50.632 17.19V6h-4.737v12.366c0 1.027-.075 2.353-1.428 2.353-1.203 0-1.379-1.226-1.43-2.152H38c0 2.703 1.103 4.906 3.735 5.857.776.3 1.654.45 2.506.45 1.98 0 3.985-.875 5.238-2.427 1.153-1.452 1.153-3.48 1.153-5.257zM67.966 24.524V10.631h-4.16v1.477h-.05c-.827-1.377-2.532-1.953-4.06-1.953-4.186 0-6.993 3.355-6.993 7.41 0 4.13 2.706 7.435 6.992 7.435 1.504 0 3.309-.55 4.06-1.978h.05v1.502h4.161zm-4.16-6.959c0 2.003-1.454 3.555-3.484 3.555-1.955 0-3.459-1.577-3.459-3.505 0-1.977 1.404-3.58 3.434-3.58 2.03 0 3.509 1.502 3.509 3.53zM92.356 24.524V16.94c0-2.127.076-3.78-1.503-5.382-.978-1.001-2.281-1.402-3.66-1.402-1.88 0-3.408.902-4.411 2.479-.852-1.577-2.206-2.479-4.01-2.479-1.58 0-3.033.526-3.835 1.953h-.05v-1.477h-3.885v13.893h4.16V17.14c0-1.628.427-3.08 2.356-3.08 1.755 0 2.08 1.477 2.08 2.904v7.56h4.162V16.94c0-1.577.45-2.878 2.305-2.878 1.93 0 2.13 1.552 2.13 3.079v7.384h4.162zM105.709 20.269c0-4.907-6.993-3.68-6.993-5.858 0-.626.627-.926 1.178-.926.727 0 1.279.275 1.304 1.051h4.085c-.275-2.954-2.556-4.38-5.338-4.38-2.682 0-5.39 1.677-5.39 4.58 0 1.953 1.655 3.03 3.31 3.63.6.226 1.202.426 1.804.626.752.3 1.88.6 1.88 1.602 0 .726-.827 1.077-1.454 1.077-.827 0-1.454-.426-1.579-1.277H94.38c.326 3.054 2.758 4.606 5.665 4.606 2.832 0 5.664-1.602 5.664-4.731zM114.783 13.785v-3.154h-2.005V6h-4.161v4.631h-2.055v3.154h2.055v10.74h4.161v-10.74h2.005zM130.823 24.524V10.631h-4.161v1.477h-.05c-.827-1.377-2.532-1.953-4.06-1.953-4.186 0-6.993 3.355-6.993 7.41 0 4.13 2.707 7.435 6.993 7.435 1.503 0 3.308-.55 4.06-1.978h.05v1.502h4.161zm-4.161-6.959c0 2.003-1.454 3.555-3.484 3.555-1.955 0-3.459-1.577-3.459-3.505 0-1.977 1.404-3.58 3.434-3.58 2.03 0 3.509 1.502 3.509 3.53zM147.919 19.242h-4.236c-.626 1.202-1.629 1.853-3.008 1.853-2.03 0-3.308-1.577-3.308-3.53 0-1.877 1.203-3.53 3.208-3.53 1.429 0 2.507.651 3.108 1.953h4.211c-.727-3.53-3.81-5.832-7.369-5.832-4.135 0-7.344 3.279-7.344 7.384 0 4.156 3.284 7.435 7.444 7.435 3.509 0 6.492-2.328 7.294-5.733zM163 10.631h-4.938l-3.86 5.032h-.05V6h-4.16v18.524h4.16v-6.683h.05l3.936 6.683h4.712l-5.088-7.785L163 10.631z" fill="#fff"/><path d="M15.5 0C6.93 0 0 6.93 0 15.5S6.93 31 15.5 31 31 24.07 31 15.5V0H15.5z" fill="#F0047F"/><path d="M3 16c.183 6.537 5.463 11.817 12 12V16H3z" fill="#fff"/><path fill-rule="evenodd" clip-rule="evenodd" d="M15 28V16H3c.003.115.008.229.014.343.348 6.264 5.38 11.295 11.643 11.643.114.006.228.01.343.014zM3.358 16.343c.347 6.075 5.225 10.952 11.3 11.3v-11.3h-11.3z" fill="#F0047F"/><path d="M15 28c5.992-.183 10.832-5.463 11-12H15v12z" fill="#fff"/><path fill-rule="evenodd" clip-rule="evenodd" d="M26 16H15v12c.105-.003.21-.008.314-.014 5.742-.348 10.354-5.38 10.673-11.643.006-.114.01-.228.013-.343zm-.328.343H15.314v11.3c5.569-.348 10.04-5.226 10.358-11.3z" fill="#F0047F"/><path d="M26 5H15v11h11V5z" fill="#fff"/><path fill-rule="evenodd" clip-rule="evenodd" d="M25.686 5.314H15.314v10.372h10.372V5.314zM26 5v11H15V5h11z" fill="#F0047F"/></symbol></defs></svg>